# xmcd
#
# Track frame offsets:
#	150
#	17987
#	34200
#	51105
#	79024
#	93573
#	118720
#	134894
#	160547
#	174995
#	197453
#	219263
#	242451
#	268900
#	294061
#	315202
#
# Disc length: 4382
#
# Revision: 1
# Processed by: cddbd v1.5.1PL0 Copyright (c) Steve Scherf et al.
# Submitted via: CDex 1.60beta1
# Normalized: r0:DSETVAR1
#
DISCID=d2111c10
DTITLE=Various Artist - WBGO 25th Anniversary Compilation Disc 2
DYEAR=1900
DGENRE=Jazz
TTITLE0=Stan Getz - Night Rider
TTITLE1=Benny Carter and His Orchestra - Doozy
TTITLE2=Quincy Jones and His Orchestra - Little Karen
TTITLE3=Herbie Hancock - Empty Pockets
TTITLE4=Rahsaan Roland Kirk - Domino
TTITLE5=Stanley Turrentine - You Said It
TTITLE6=John Coltrane - All Or Nothing At All
TTITLE7=Donald Byrd - Cristo Redentor
TTITLE8=Cal Tjader - Black Orchid
TTITLE9=Jimmy Smith - Who's Afraid Of Virginia Woolf? (pt. 2)
TTITLE10=Wes Montgomery - Bumpin' On Sunset
TTITLE11=Cannonball Adderley - Mercy, Mercy, Mercy
TTITLE12=Duke Ellington Orchestra - Rockin' In Rhythm
TTITLE13=Bobby Hutcherson - Camel Rise
TTITLE14=Regina Carter - New York Attitude
TTITLE15=Ron Carter Trio - On And On
EXTD=
EXTT0=
EXTT1=
EXTT2=
EXTT3=
EXTT4=
EXTT5=
EXTT6=
EXTT7=
EXTT8=
EXTT9=
EXTT10=
EXTT11=
EXTT12=
EXTT13=
EXTT14=
EXTT15=
PLAYORDER=
